# xmcd
#
# Track frame offsets: 
#        150
#        15110
#        27725
#        46036
#        60443
#        73472
#        87916
#        101844
#        117072
#        132264
#        147071
#        161926
#        174980
#        189185
#        205825
#        219689
#
# Disc length: 3117 seconds
#
# Revision: 0
# Processed by: cddbd v1.5.2PL0 Copyright (c) Steve Scherf et al.
# Submitted via: ExactAudioCopyFreeDBPlugin 1.0
#
DISCID=dd0c2b10
DTITLE=ไพรวัลย์ ลูกเพชร - คำเตือนของพี่
DYEAR=1999
DGENRE=Country
TTITLE0=คำเตือนของพี่
TTITLE1=อดีตรัก
TTITLE2=กลิ่นแก้มนาง
TTITLE3=ใต้เงาโศก
TTITLE4=น้อง
TTITLE5=กอดเข่าครวญ
TTITLE6=เปลี่ยวทรวง
TTITLE7=น้ำตาต่างข้าว
TTITLE8=ไพรอำพราง
TTITLE9=เพชรบุรีแห่งความหลัง
TTITLE10=แสบหัวใจ
TTITLE11=ลาก่อนที่รัก
TTITLE12=สายัณห์พิศวาส
TTITLE13=คืนนี้ไม่มีเธอ
TTITLE14=ดึกแล้วพี่คอย
TTITLE15=กลับเถิดดวงใจ
EXTD=
EXTT0=
EXTT1=
EXTT2=
EXTT3=
EXTT4=
EXTT5=
EXTT6=
EXTT7=
EXTT8=
EXTT9=
EXTT10=
EXTT11=
EXTT12=
EXTT13=
EXTT14=
EXTT15=
PLAYORDER=
